<svg viewBox="0 0 163 35" fill="none" xmlns="http://www.w3.org/2000/svg">
<path d="M78.83 8.93213C77.4954 7.4947 75.716 6.79065 73.5213 6.79065C70.9708 6.79065 69.043 7.70004 67.7678 9.54817C66.6408 7.70004 64.891 6.79065 62.5184 6.79065C60.0865 6.79065 58.307 7.64137 57.1504 9.34282C57.1504 8.22808 56.231 7.31869 55.104 7.31869H52.1679V26.4453H57.1504V15.7086C57.1504 14.3005 57.4766 13.2444 58.1291 12.511C58.7815 11.7777 59.6712 11.3963 60.7686 11.3963C61.8066 11.3963 62.6073 11.719 63.1708 12.3644C63.7343 13.0097 64.0309 13.8898 64.0309 15.0339V26.4746H69.0134V15.7086C69.0134 14.3005 69.3396 13.2444 69.9624 12.511C70.5852 11.7777 71.475 11.3963 72.6019 11.3963C73.64 11.3963 74.4407 11.719 75.0042 12.3644C75.5677 13.0097 75.8643 13.8898 75.8643 15.0339V26.4746H80.8467V14.6525C80.8171 12.2764 80.1646 10.3402 78.83 8.93213Z" fill="white"/>
<path d="M101.014 9.72418C99.175 7.78805 96.9507 6.79065 94.3409 6.79065C91.642 6.79065 89.5363 7.72938 88.0831 9.5775C88.0831 8.34542 87.0748 7.31869 85.7995 7.31869H83.1006V34.0725H88.0831V24.1865C89.566 26.0346 91.642 26.9733 94.3409 26.9733C96.9507 26.9733 99.175 26.0053 101.014 24.0398C102.853 22.1037 103.772 19.6982 103.772 16.882C103.772 14.0365 102.853 11.6603 101.014 9.72418ZM97.2473 20.7543C96.2389 21.7517 94.934 22.2504 93.3918 22.2504C91.8496 22.2504 90.5743 21.7517 89.566 20.7543C88.5576 19.7569 88.0535 18.4661 88.0535 16.882C88.0535 15.2979 88.5576 14.0071 89.566 13.0097C90.5743 12.0123 91.8496 11.5136 93.3918 11.5136C94.934 11.5136 96.2093 12.0123 97.2473 13.0097C98.2556 14.0071 98.7598 15.2979 98.7598 16.882C98.7895 18.4661 98.2853 19.7569 97.2473 20.7543Z" fill="white"/>
<path d="M123.465 7.31869C122.219 7.31869 121.181 8.31609 121.181 9.5775C119.698 7.72938 117.592 6.79065 114.894 6.79065C112.313 6.79065 110.119 7.75872 108.25 9.72418C106.412 11.6603 105.492 14.0658 105.492 16.882C105.492 19.6982 106.412 22.1037 108.25 24.0398C110.089 25.9759 112.313 26.9733 114.894 26.9733C117.592 26.9733 119.698 26.0346 121.181 24.1865V26.4453H126.163V7.31869H123.465ZM119.668 20.7543C118.66 21.7517 117.355 22.2504 115.813 22.2504C114.271 22.2504 112.995 21.7517 111.987 20.7543C110.979 19.7569 110.475 18.4661 110.475 16.882C110.475 15.2979 110.979 14.0071 111.987 13.0097C112.995 12.0123 114.271 11.5136 115.813 11.5136C117.355 11.5136 118.63 12.0123 119.668 13.0097C120.677 14.0071 121.211 15.2979 121.211 16.882C121.181 18.4661 120.677 19.7569 119.668 20.7543Z" fill="white"/>
<path d="M159.499 7.31869C158.223 7.31869 157.215 8.31609 157.215 9.5775C155.732 7.72938 153.626 6.79065 150.927 6.79065C148.347 6.79065 146.153 7.75872 144.284 9.72418C142.445 11.6603 141.526 14.0658 141.526 16.882C141.526 19.6982 142.445 22.1037 144.284 24.0398C146.123 25.9759 148.347 26.9733 150.927 26.9733C153.626 26.9733 155.732 26.0346 157.215 24.1865V26.4453H162.227V7.31869H159.499ZM155.702 20.7543C154.694 21.7517 153.389 22.2504 151.847 22.2504C150.305 22.2504 149.029 21.7517 148.021 20.7543C147.013 19.7569 146.509 18.4661 146.509 16.882C146.509 15.2979 147.013 14.0071 148.021 13.0097C149.029 12.0123 150.305 11.5136 151.847 11.5136C153.389 11.5136 154.664 12.0123 155.702 13.0097C156.711 14.0071 157.215 15.2979 157.215 16.882C157.215 18.4661 156.711 19.7569 155.702 20.7543Z" fill="white"/>
<path d="M39.6228 6.81998C34.8183 6.79064 31.3484 9.54816 29.8952 13.0684C32.505 13.3324 35.2039 12.9804 37.5765 11.983C38.9407 11.4256 40.3939 11.455 41.6395 12.0123C41.6692 12.0123 41.6692 12.0417 41.6989 12.0417C43.241 12.7164 44.457 14.1831 44.6053 16.442C44.6053 16.5886 44.6349 16.7646 44.6349 16.9407C44.6349 17.0873 44.6349 17.2633 44.6053 17.41C44.6053 17.4687 44.6053 17.498 44.6053 17.5567V17.586C44.3977 19.6982 43.1817 21.1063 41.6395 21.7517C41.5506 21.781 41.4913 21.8103 41.4023 21.8397C39.9491 22.3677 38.2289 22.2504 36.8943 21.4583C36.8647 21.429 36.835 21.429 36.7757 21.3996C36.5978 21.2823 36.4495 21.1649 36.3012 21.0476C34.1065 19.4048 31.645 18.4074 29.1537 18.0261C29.391 20.1969 30.3104 22.309 32.1195 24.0691C38.4958 30.2589 50.003 26.1813 50.0623 16.97C50.0919 11.1323 45.3764 6.84932 39.6228 6.81998Z" fill="white"/>
<path d="M24.9421 17.9378C25.4166 17.8791 25.9505 17.8498 26.4843 17.8204C24.6752 23.1595 19.5444 27.0024 13.5239 26.9731C6.02059 26.9437 -0.029549 20.9007 0.00010857 13.4495C0.0297661 6.02765 6.16888 0.0432513 13.6722 0.0725866C20.8197 0.101922 26.6622 5.61696 27.1664 12.5401C26.8402 12.4521 26.514 12.3641 26.1877 12.2467C26.1581 12.2467 26.1581 12.2467 26.1284 12.2174C26.0691 12.1881 26.0394 12.1881 25.9801 12.1587C25.9801 12.1587 25.9801 12.1587 25.9505 12.1587C24.3193 11.572 22.8364 10.692 21.5315 9.54789C21.4425 9.45988 21.3535 9.40121 21.2646 9.31321C21.1756 9.2252 21.0866 9.16653 21.0273 9.07853H21.057C21.0273 9.04919 20.9977 9.01986 20.9977 9.01986C20.9383 8.96119 20.879 8.90251 20.8197 8.84384C20.79 8.81451 20.7604 8.78517 20.7307 8.75584C20.6714 8.66783 20.5824 8.60916 20.5231 8.52116C20.4935 8.49182 20.4638 8.46248 20.4638 8.43315C20.4342 8.40381 20.4045 8.34514 20.3748 8.31581C20.3452 8.25714 20.2859 8.2278 20.2562 8.16913C15.3331 2.21406 5.63504 5.44095 5.13086 12.9215C4.74532 17.8498 8.66011 21.9567 13.5536 21.9861C13.6426 21.9861 13.7019 21.9861 13.7909 21.9861C13.8502 21.9861 13.8798 21.9861 13.9392 21.9861C14.9179 21.9567 15.6889 21.7807 16.4007 21.5167C16.4304 21.5167 16.4304 21.4874 16.46 21.4874C17.1718 21.2233 17.7946 20.8713 18.4174 20.49C19.2182 19.9913 20.019 19.4632 20.9977 19.0232C22.095 18.5245 23.3109 18.1138 24.9421 17.9378Z" fill="white"/>
<path opacity="0.6" d="M34.5218 16.882C34.5218 18.7595 35.2336 20.1382 36.3013 21.0183C34.1066 19.3755 31.645 18.3781 29.1538 17.9968C28.9759 16.3246 29.2428 14.6232 29.8952 13.0978C32.5051 13.3618 35.2039 13.0097 37.5765 12.0123C38.9408 11.455 40.394 11.4843 41.6396 12.0417C38.6739 10.7509 34.5515 12.335 34.5218 16.882Z" fill="white" fill-opacity="0.8"/>
<path opacity="0.6" d="M16.4899 21.4876C17.2016 21.2236 17.8245 20.8716 18.4473 20.4902C17.8541 20.9009 17.172 21.2529 16.4899 21.4876Z" fill="white"/>
<path opacity="0.6" d="M21.0573 18.9941C22.0953 18.5247 23.3112 18.114 24.9424 17.938C23.6078 18.114 22.3029 18.4661 21.0573 18.9941Z" fill="white"/>
<path opacity="0.6" d="M25.9802 12.159C24.349 11.5723 22.8661 10.6922 21.5612 9.54814C22.8661 10.7216 24.349 11.5723 25.9802 12.159Z" fill="white"/>
<path d="M133.874 8.96143L133.459 9.34279C133.459 8.22804 132.54 7.31865 131.413 7.31865H128.477V26.4453H133.459V17.2927C133.459 15.4445 134.171 14.2711 135.268 13.3617C137.463 11.4843 139.895 12.687 140.251 12.8337L142.505 9.16677C141.378 8.1107 139.924 7.72934 138.649 7.64134C136.899 7.46533 135.179 7.81735 133.874 8.96143Z" fill="white"/>
</svg>
